<mxfile host="app.diagrams.net" agent="Mozilla/5.0 (Windows NT 10.0; Win64; x64) AppleWebKit/537.36 (KHTML, like Gecko) Chrome/131.0.0.0 Safari/537.36" version="26.0.5">
  <diagram name="Página-1" id="mzDS3_JhOczSdlY6aYxB">
    <mxGraphModel dx="1035" dy="598" grid="1" gridSize="10" guides="1" tooltips="1" connect="1" arrows="1" fold="1" page="1" pageScale="1" pageWidth="827" pageHeight="1169" math="0" shadow="0">
      <root>
        <mxCell id="0" />
        <mxCell id="1" parent="0" />
        <mxCell id="xrbv6nah-_aEOcMVp-Ih-7" style="edgeStyle=orthogonalEdgeStyle;rounded=0;orthogonalLoop=1;jettySize=auto;html=1;" edge="1" parent="1" source="xrbv6nah-_aEOcMVp-Ih-1" target="xrbv6nah-_aEOcMVp-Ih-5">
          <mxGeometry relative="1" as="geometry" />
        </mxCell>
        <mxCell id="xrbv6nah-_aEOcMVp-Ih-1" value="INICIO" style="strokeWidth=2;html=1;shape=mxgraph.flowchart.start_1;whiteSpace=wrap;" vertex="1" parent="1">
          <mxGeometry x="370" y="20" width="100" height="60" as="geometry" />
        </mxCell>
        <mxCell id="xrbv6nah-_aEOcMVp-Ih-2" value="FIM" style="strokeWidth=2;html=1;shape=mxgraph.flowchart.start_1;whiteSpace=wrap;" vertex="1" parent="1">
          <mxGeometry x="361.5" y="750" width="100" height="60" as="geometry" />
        </mxCell>
        <mxCell id="xrbv6nah-_aEOcMVp-Ih-8" style="edgeStyle=orthogonalEdgeStyle;rounded=0;orthogonalLoop=1;jettySize=auto;html=1;" edge="1" parent="1" source="xrbv6nah-_aEOcMVp-Ih-5" target="xrbv6nah-_aEOcMVp-Ih-6">
          <mxGeometry relative="1" as="geometry" />
        </mxCell>
        <mxCell id="xrbv6nah-_aEOcMVp-Ih-5" value="VAR_NUM =&amp;nbsp;{5,40,27,13,45}&lt;div&gt;SOMA = 0&lt;/div&gt;&lt;div&gt;MAIORES = 0&lt;/div&gt;&lt;div&gt;MEDIA&lt;/div&gt;" style="rounded=1;whiteSpace=wrap;html=1;absoluteArcSize=1;arcSize=14;strokeWidth=2;" vertex="1" parent="1">
          <mxGeometry x="337.5" y="100" width="165" height="60" as="geometry" />
        </mxCell>
        <mxCell id="xrbv6nah-_aEOcMVp-Ih-10" style="edgeStyle=orthogonalEdgeStyle;rounded=0;orthogonalLoop=1;jettySize=auto;html=1;" edge="1" parent="1" source="xrbv6nah-_aEOcMVp-Ih-6" target="xrbv6nah-_aEOcMVp-Ih-9">
          <mxGeometry relative="1" as="geometry" />
        </mxCell>
        <mxCell id="xrbv6nah-_aEOcMVp-Ih-13" value="" style="edgeStyle=orthogonalEdgeStyle;rounded=0;orthogonalLoop=1;jettySize=auto;html=1;" edge="1" parent="1" source="xrbv6nah-_aEOcMVp-Ih-6" target="xrbv6nah-_aEOcMVp-Ih-9">
          <mxGeometry relative="1" as="geometry" />
        </mxCell>
        <mxCell id="xrbv6nah-_aEOcMVp-Ih-16" value="SIM" style="edgeLabel;html=1;align=center;verticalAlign=middle;resizable=0;points=[];" vertex="1" connectable="0" parent="xrbv6nah-_aEOcMVp-Ih-13">
          <mxGeometry x="0.2496" y="-1" relative="1" as="geometry">
            <mxPoint as="offset" />
          </mxGeometry>
        </mxCell>
        <mxCell id="xrbv6nah-_aEOcMVp-Ih-17" style="edgeStyle=orthogonalEdgeStyle;rounded=0;orthogonalLoop=1;jettySize=auto;html=1;entryX=1;entryY=0.5;entryDx=0;entryDy=0;" edge="1" parent="1" source="xrbv6nah-_aEOcMVp-Ih-6" target="xrbv6nah-_aEOcMVp-Ih-18">
          <mxGeometry relative="1" as="geometry">
            <mxPoint x="570" y="350" as="targetPoint" />
            <Array as="points">
              <mxPoint x="560" y="195" />
              <mxPoint x="560" y="315" />
            </Array>
          </mxGeometry>
        </mxCell>
        <mxCell id="xrbv6nah-_aEOcMVp-Ih-19" value="NÃO" style="edgeLabel;html=1;align=center;verticalAlign=middle;resizable=0;points=[];" vertex="1" connectable="0" parent="xrbv6nah-_aEOcMVp-Ih-17">
          <mxGeometry x="-0.8132" relative="1" as="geometry">
            <mxPoint as="offset" />
          </mxGeometry>
        </mxCell>
        <mxCell id="xrbv6nah-_aEOcMVp-Ih-6" value="C=0; C&amp;nbsp;&amp;lt; 5, C+1" style="rounded=1;whiteSpace=wrap;html=1;absoluteArcSize=1;arcSize=14;strokeWidth=2;" vertex="1" parent="1">
          <mxGeometry x="315" y="180" width="210" height="30" as="geometry" />
        </mxCell>
        <mxCell id="xrbv6nah-_aEOcMVp-Ih-11" style="edgeStyle=orthogonalEdgeStyle;rounded=0;orthogonalLoop=1;jettySize=auto;html=1;entryX=0;entryY=0.5;entryDx=0;entryDy=0;" edge="1" parent="1" source="xrbv6nah-_aEOcMVp-Ih-9" target="xrbv6nah-_aEOcMVp-Ih-6">
          <mxGeometry relative="1" as="geometry">
            <Array as="points">
              <mxPoint x="280" y="260" />
              <mxPoint x="280" y="195" />
            </Array>
          </mxGeometry>
        </mxCell>
        <mxCell id="xrbv6nah-_aEOcMVp-Ih-9" value="SOMA + VAR_NUM[C]" style="rounded=1;whiteSpace=wrap;html=1;absoluteArcSize=1;arcSize=14;strokeWidth=2;" vertex="1" parent="1">
          <mxGeometry x="315" y="240" width="210" height="30" as="geometry" />
        </mxCell>
        <mxCell id="xrbv6nah-_aEOcMVp-Ih-21" style="edgeStyle=orthogonalEdgeStyle;rounded=0;orthogonalLoop=1;jettySize=auto;html=1;" edge="1" parent="1" source="xrbv6nah-_aEOcMVp-Ih-18" target="xrbv6nah-_aEOcMVp-Ih-20">
          <mxGeometry relative="1" as="geometry" />
        </mxCell>
        <mxCell id="xrbv6nah-_aEOcMVp-Ih-18" value="MEDIA = SOMA / 5" style="rounded=1;whiteSpace=wrap;html=1;absoluteArcSize=1;arcSize=14;strokeWidth=2;" vertex="1" parent="1">
          <mxGeometry x="309" y="300" width="210" height="30" as="geometry" />
        </mxCell>
        <mxCell id="xrbv6nah-_aEOcMVp-Ih-38" style="edgeStyle=orthogonalEdgeStyle;rounded=0;orthogonalLoop=1;jettySize=auto;html=1;" edge="1" parent="1" source="xrbv6nah-_aEOcMVp-Ih-20" target="xrbv6nah-_aEOcMVp-Ih-22">
          <mxGeometry relative="1" as="geometry" />
        </mxCell>
        <mxCell id="xrbv6nah-_aEOcMVp-Ih-20" value="MEDIA" style="strokeWidth=2;html=1;shape=mxgraph.flowchart.display;whiteSpace=wrap;" vertex="1" parent="1">
          <mxGeometry x="364" y="360" width="100" height="40" as="geometry" />
        </mxCell>
        <mxCell id="xrbv6nah-_aEOcMVp-Ih-22" value="C=0; C&amp;nbsp;&amp;lt; 5, C+1" style="rounded=1;whiteSpace=wrap;html=1;absoluteArcSize=1;arcSize=14;strokeWidth=2;" vertex="1" parent="1">
          <mxGeometry x="309" y="425" width="210" height="30" as="geometry" />
        </mxCell>
        <mxCell id="xrbv6nah-_aEOcMVp-Ih-28" style="edgeStyle=orthogonalEdgeStyle;rounded=0;orthogonalLoop=1;jettySize=auto;html=1;exitX=1;exitY=0.5;exitDx=0;exitDy=0;exitPerimeter=0;" edge="1" parent="1" source="xrbv6nah-_aEOcMVp-Ih-23" target="xrbv6nah-_aEOcMVp-Ih-25">
          <mxGeometry relative="1" as="geometry" />
        </mxCell>
        <mxCell id="xrbv6nah-_aEOcMVp-Ih-31" value="SIM" style="edgeLabel;html=1;align=center;verticalAlign=middle;resizable=0;points=[];" vertex="1" connectable="0" parent="xrbv6nah-_aEOcMVp-Ih-28">
          <mxGeometry x="-0.3558" y="-3" relative="1" as="geometry">
            <mxPoint y="-2" as="offset" />
          </mxGeometry>
        </mxCell>
        <mxCell id="xrbv6nah-_aEOcMVp-Ih-23" value="VAR_NUM[C] &amp;gt; MEDIA" style="strokeWidth=2;html=1;shape=mxgraph.flowchart.decision;whiteSpace=wrap;" vertex="1" parent="1">
          <mxGeometry x="322.5" y="480" width="195" height="60" as="geometry" />
        </mxCell>
        <mxCell id="xrbv6nah-_aEOcMVp-Ih-29" style="edgeStyle=orthogonalEdgeStyle;rounded=0;orthogonalLoop=1;jettySize=auto;html=1;" edge="1" parent="1" source="xrbv6nah-_aEOcMVp-Ih-25" target="xrbv6nah-_aEOcMVp-Ih-26">
          <mxGeometry relative="1" as="geometry" />
        </mxCell>
        <mxCell id="xrbv6nah-_aEOcMVp-Ih-25" value="VAR_NUM[C]" style="strokeWidth=2;html=1;shape=mxgraph.flowchart.display;whiteSpace=wrap;" vertex="1" parent="1">
          <mxGeometry x="490" y="530" width="100" height="40" as="geometry" />
        </mxCell>
        <mxCell id="xrbv6nah-_aEOcMVp-Ih-26" value="MAIORES + 1" style="rounded=1;whiteSpace=wrap;html=1;absoluteArcSize=1;arcSize=14;strokeWidth=2;" vertex="1" parent="1">
          <mxGeometry x="485" y="585" width="110" height="30" as="geometry" />
        </mxCell>
        <mxCell id="xrbv6nah-_aEOcMVp-Ih-39" style="edgeStyle=orthogonalEdgeStyle;rounded=0;orthogonalLoop=1;jettySize=auto;html=1;exitX=0.5;exitY=1;exitDx=0;exitDy=0;exitPerimeter=0;entryX=0.006;entryY=0.587;entryDx=0;entryDy=0;entryPerimeter=0;" edge="1" parent="1" source="xrbv6nah-_aEOcMVp-Ih-27" target="xrbv6nah-_aEOcMVp-Ih-22">
          <mxGeometry relative="1" as="geometry">
            <mxPoint x="370" y="670" as="sourcePoint" />
            <mxPoint x="300" y="440" as="targetPoint" />
            <Array as="points">
              <mxPoint x="412" y="660" />
              <mxPoint x="242" y="660" />
              <mxPoint x="242" y="441" />
              <mxPoint x="280" y="441" />
              <mxPoint x="280" y="440" />
            </Array>
          </mxGeometry>
        </mxCell>
        <mxCell id="xrbv6nah-_aEOcMVp-Ih-27" value="" style="verticalLabelPosition=bottom;verticalAlign=top;html=1;shape=mxgraph.flowchart.on-page_reference;" vertex="1" parent="1">
          <mxGeometry x="402" y="625" width="19" height="19" as="geometry" />
        </mxCell>
        <mxCell id="xrbv6nah-_aEOcMVp-Ih-32" style="edgeStyle=orthogonalEdgeStyle;rounded=0;orthogonalLoop=1;jettySize=auto;html=1;entryX=1;entryY=0.5;entryDx=0;entryDy=0;entryPerimeter=0;" edge="1" parent="1" source="xrbv6nah-_aEOcMVp-Ih-26" target="xrbv6nah-_aEOcMVp-Ih-27">
          <mxGeometry relative="1" as="geometry">
            <Array as="points">
              <mxPoint x="540" y="635" />
            </Array>
          </mxGeometry>
        </mxCell>
        <mxCell id="xrbv6nah-_aEOcMVp-Ih-33" style="edgeStyle=orthogonalEdgeStyle;rounded=0;orthogonalLoop=1;jettySize=auto;html=1;entryX=0;entryY=0.5;entryDx=0;entryDy=0;entryPerimeter=0;exitX=0;exitY=0.5;exitDx=0;exitDy=0;exitPerimeter=0;" edge="1" parent="1" source="xrbv6nah-_aEOcMVp-Ih-23" target="xrbv6nah-_aEOcMVp-Ih-27">
          <mxGeometry relative="1" as="geometry">
            <Array as="points">
              <mxPoint x="270" y="510" />
              <mxPoint x="270" y="634" />
            </Array>
          </mxGeometry>
        </mxCell>
        <mxCell id="xrbv6nah-_aEOcMVp-Ih-34" value="NÃO" style="edgeLabel;html=1;align=center;verticalAlign=middle;resizable=0;points=[];" vertex="1" connectable="0" parent="xrbv6nah-_aEOcMVp-Ih-33">
          <mxGeometry x="-0.8472" y="2" relative="1" as="geometry">
            <mxPoint as="offset" />
          </mxGeometry>
        </mxCell>
        <mxCell id="xrbv6nah-_aEOcMVp-Ih-37" style="edgeStyle=orthogonalEdgeStyle;rounded=0;orthogonalLoop=1;jettySize=auto;html=1;" edge="1" parent="1" source="xrbv6nah-_aEOcMVp-Ih-35" target="xrbv6nah-_aEOcMVp-Ih-2">
          <mxGeometry relative="1" as="geometry" />
        </mxCell>
        <mxCell id="xrbv6nah-_aEOcMVp-Ih-35" value="MAIORES" style="strokeWidth=2;html=1;shape=mxgraph.flowchart.display;whiteSpace=wrap;" vertex="1" parent="1">
          <mxGeometry x="361.5" y="680" width="100" height="40" as="geometry" />
        </mxCell>
        <mxCell id="xrbv6nah-_aEOcMVp-Ih-40" style="edgeStyle=orthogonalEdgeStyle;rounded=0;orthogonalLoop=1;jettySize=auto;html=1;entryX=0.5;entryY=0;entryDx=0;entryDy=0;entryPerimeter=0;" edge="1" parent="1" source="xrbv6nah-_aEOcMVp-Ih-22" target="xrbv6nah-_aEOcMVp-Ih-23">
          <mxGeometry relative="1" as="geometry" />
        </mxCell>
        <mxCell id="xrbv6nah-_aEOcMVp-Ih-43" value="SIM" style="edgeLabel;html=1;align=center;verticalAlign=middle;resizable=0;points=[];" vertex="1" connectable="0" parent="xrbv6nah-_aEOcMVp-Ih-40">
          <mxGeometry x="0.1813" y="2" relative="1" as="geometry">
            <mxPoint y="2" as="offset" />
          </mxGeometry>
        </mxCell>
        <mxCell id="xrbv6nah-_aEOcMVp-Ih-41" style="edgeStyle=orthogonalEdgeStyle;rounded=0;orthogonalLoop=1;jettySize=auto;html=1;entryX=1;entryY=0.5;entryDx=0;entryDy=0;entryPerimeter=0;exitX=1;exitY=0.5;exitDx=0;exitDy=0;" edge="1" parent="1" source="xrbv6nah-_aEOcMVp-Ih-22" target="xrbv6nah-_aEOcMVp-Ih-35">
          <mxGeometry relative="1" as="geometry">
            <Array as="points">
              <mxPoint x="525" y="440" />
              <mxPoint x="620" y="440" />
              <mxPoint x="620" y="700" />
            </Array>
          </mxGeometry>
        </mxCell>
        <mxCell id="xrbv6nah-_aEOcMVp-Ih-42" value="NÃO" style="edgeLabel;html=1;align=center;verticalAlign=middle;resizable=0;points=[];" vertex="1" connectable="0" parent="xrbv6nah-_aEOcMVp-Ih-41">
          <mxGeometry x="-0.7641" y="-4" relative="1" as="geometry">
            <mxPoint x="-12" y="-3" as="offset" />
          </mxGeometry>
        </mxCell>
      </root>
    </mxGraphModel>
  </diagram>
</mxfile>
